<svg xmlns="http://www.w3.org/2000/svg" viewBox="0 0 400 300" width="400" height="300">
  <rect width="400" height="300" fill="#1A1A1A"/>
  <pattern id="g1" x="0" y="0" width="30" height="30" patternUnits="userSpaceOnUse">
    <line x1="0" y1="30" x2="30" y2="0" stroke="#C6FF00" stroke-width="0.4" opacity="0.12"/>
  </pattern>
  <rect width="400" height="300" fill="url(#g1)"/>
  <!-- Icon -->
  <g transform="translate(180,60) scale(1.5)" stroke="#C6FF00" fill="none"><circle cx="20" cy="14" r="6" stroke="currentColor" stroke-width="2" fill="none"/><path d="M8 36c0-6.6 5.4-12 12-12s12 5.4 12 12" stroke="currentColor" stroke-width="2" stroke-linecap="round" fill="none"/><path d="M12 14 Q12 8 20 8 Q28 8 28 14" stroke="currentColor" stroke-width="2" fill="none"/><rect x="9" y="13" width="4" height="6" rx="2" stroke="currentColor" stroke-width="1.5" fill="none"/><rect x="27" y="13" width="4" height="6" rx="2" stroke="currentColor" stroke-width="1.5" fill="none"/></g>
  <!-- Labels -->
  <text x="200" y="195" text-anchor="middle" font-family="Barlow Condensed, sans-serif" font-size="22" font-weight="700" fill="#FFFFFF" letter-spacing="3">COMMUNICATION</text>
  <text x="200" y="220" text-anchor="middle" font-family="Inter, sans-serif" font-size="13" fill="#888888">Intercoms & headsets</text>
  <!-- Corner accents -->
  <polygon points="0,0 50,0 0,50" fill="#C6FF00" opacity="0.08"/>
  <polygon points="400,300 350,300 400,250" fill="#C6FF00" opacity="0.08"/>
</svg>