<svg xmlns="http://www.w3.org/2000/svg" viewBox="0 0 400 400" width="400" height="400">
  <rect width="400" height="400" fill="#111111"/>
  <pattern id="p4" x="0" y="0" width="16" height="16" patternUnits="userSpaceOnUse">
    <line x1="8" y1="0" x2="8" y2="16" stroke="#C6FF00" stroke-width="0.4" opacity="0.12"/>
    <line x1="0" y1="8" x2="16" y2="8" stroke="#C6FF00" stroke-width="0.4" opacity="0.12"/>
  </pattern>
  <rect width="400" height="400" fill="url(#p4)"/>
  <path d="M110 200 Q200 110 290 200 L290 300 Q200 330 110 300 Z" fill="none" stroke="#C6FF00" stroke-width="2.5"/>
  <line x1="130" y1="310" x2="130" y2="335" stroke="#C6FF00" stroke-width="2.5" stroke-linecap="round"/>
  <line x1="165" y1="318" x2="165" y2="348" stroke="#C6FF00" stroke-width="2.5" stroke-linecap="round"/>
  <line x1="200" y1="322" x2="200" y2="352" stroke="#C6FF00" stroke-width="2.5" stroke-linecap="round"/>
  <line x1="235" y1="318" x2="235" y2="348" stroke="#C6FF00" stroke-width="2.5" stroke-linecap="round"/>
  <line x1="270" y1="310" x2="270" y2="335" stroke="#C6FF00" stroke-width="2.5" stroke-linecap="round"/>
  <line x1="200" y1="200" x2="200" y2="110" stroke="#C6FF00" stroke-width="2" opacity="0.4"/>
  <!-- raindrops -->
  <circle cx="150" cy="155" r="4" fill="#C6FF00" opacity="0.5"/>
  <circle cx="250" cy="145" r="3" fill="#C6FF00" opacity="0.4"/>
  <circle cx="200" cy="130" r="3.5" fill="#C6FF00" opacity="0.45"/>
  <text x="200" y="378" text-anchor="middle" font-family="Barlow Condensed, sans-serif" font-size="16" font-weight="700" fill="#FFFFFF" letter-spacing="2">NG-RAIN COVER</text>
  <text x="200" y="396" text-anchor="middle" font-family="Barlow Condensed, sans-serif" font-size="18" font-weight="800" fill="#C6FF00">€29</text>
</svg>
