<svg xmlns="http://www.w3.org/2000/svg" viewBox="0 0 400 400" width="400" height="400">
  <rect width="400" height="400" fill="#111111"/>
  <pattern id="p2" x="0" y="0" width="28" height="28" patternUnits="userSpaceOnUse">
    <line x1="0" y1="28" x2="28" y2="0" stroke="#C6FF00" stroke-width="0.5" opacity="0.15"/>
  </pattern>
  <rect width="400" height="400" fill="url(#p2)"/>
  <rect x="130" y="120" width="140" height="175" rx="18" fill="none" stroke="#C6FF00" stroke-width="2.5"/>
  <path d="M158 120 Q148 100 153 82 Q158 68 168 78 Q172 92 172 120" fill="none" stroke="#C6FF00" stroke-width="2.5"/>
  <path d="M242 120 Q252 100 247 82 Q242 68 232 78 Q228 92 228 120" fill="none" stroke="#C6FF00" stroke-width="2.5"/>
  <path d="M172 120 Q200 108 228 120" fill="none" stroke="#C6FF00" stroke-width="2"/>
  <rect x="150" y="195" width="100" height="70" rx="10" fill="none" stroke="#C6FF00" stroke-width="2" opacity="0.6"/>
  <line x1="157" y1="212" x2="243" y2="212" stroke="#C6FF00" stroke-width="1.5" opacity="0.4" stroke-dasharray="4,4"/>
  <rect x="160" y="135" width="80" height="50" rx="4" fill="none" stroke="#C6FF00" stroke-width="1.5" opacity="0.4"/>
  <text x="200" y="336" text-anchor="middle" font-family="Barlow Condensed, sans-serif" font-size="16" font-weight="700" fill="#FFFFFF" letter-spacing="2">NG-URBAN BACKPACK</text>
  <text x="200" y="356" text-anchor="middle" font-family="Barlow Condensed, sans-serif" font-size="20" font-weight="800" fill="#C6FF00">€129</text>
</svg>
